# xmcd
#
# Track frame offsets: 
#        150
#        69180
#        93869
#        161594
#
# Disc length: 2823 seconds
#
# Revision: 2
# Processed by: cddbd v1.5.2PL0 Copyright (c) Steve Scherf et al.
# Submitted via: ExactAudioCopy v1.3
#
DISCID=240b0504
DTITLE=Royal Flemish Philharmonic, Jaap van Zweden - Shostakovich - Sy
DTITLE=mphony No. 5
DYEAR=2008
DGENRE=Classical
TTITLE0=Symphony No. 5 in d minor, Opus 47 - I. Moderato
TTITLE1=Symphony No. 5 in d minor, Opus 47 - II. Allegretto
TTITLE2=Symphony No. 5 in d minor, Opus 47 - III. Largo
TTITLE3=Symphony No. 5 in d minor, Opus 47 - IV. Allegro ma non troppo
EXTD=YEAR: 2008
EXTT0=
EXTT1=
EXTT2=
EXTT3=
PLAYORDER=
